<svg xmlns="http://www.w3.org/2000/svg" style="display: none;">
  <!-- Custom Icons for Ethical Hacking Module -->
  
  <!-- Reconnaissance Icon -->
  <symbol id="icon-reconnaissance" viewBox="0 0 100 100">
    <circle cx="40" cy="40" r="25" fill="none" stroke="#39A900" stroke-width="4"/>
    <circle cx="40" cy="40" r="15" fill="none" stroke="#39A900" stroke-width="2"/>
    <circle cx="40" cy="40" r="5" fill="#39A900"/>
    <line x1="60" y1="60" x2="80" y2="80" stroke="#39A900" stroke-width="4" stroke-linecap="round"/>
    <circle cx="82" cy="82" r="3" fill="#39A900"/>
  </symbol>
  
  <!-- Scanning Icon -->
  <symbol id="icon-scanning" viewBox="0 0 100 100">
    <rect x="20" y="30" width="60" height="40" rx="5" fill="none" stroke="#28a745" stroke-width="3"/>
    <circle cx="50" cy="50" r="15" fill="none" stroke="#28a745" stroke-width="2"/>
    <path d="M 50 35 L 55 50 L 50 65 M 50 35 L 45 50 L 50 65" stroke="#28a745" stroke-width="2" fill="none"/>
    <line x1="35" y1="20" x2="35" y2="80" stroke="#28a745" stroke-width="2" opacity="0.6"/>
    <line x1="65" y1="20" x2="65" y2="80" stroke="#28a745" stroke-width="2" opacity="0.6"/>
  </symbol>
  
  <!-- Enumeration Icon -->
  <symbol id="icon-enumeration" viewBox="0 0 100 100">
    <rect x="25" y="20" width="50" height="60" rx="3" fill="none" stroke="#FF6600" stroke-width="3"/>
    <line x1="35" y1="35" x2="65" y2="35" stroke="#FF6600" stroke-width="2"/>
    <line x1="35" y1="45" x2="60" y2="45" stroke="#FF6600" stroke-width="2"/>
    <line x1="35" y1="55" x2="65" y2="55" stroke="#FF6600" stroke-width="2"/>
    <line x1="35" y1="65" x2="55" y2="65" stroke="#FF6600" stroke-width="2"/>
    <circle cx="30" cy="35" r="2" fill="#FF6600"/>
    <circle cx="30" cy="45" r="2" fill="#FF6600"/>
    <circle cx="30" cy="55" r="2" fill="#FF6600"/>
    <circle cx="30" cy="65" r="2" fill="#FF6600"/>
  </symbol>
  
  <!-- Exploitation Icon -->
  <symbol id="icon-exploitation" viewBox="0 0 100 100">
    <polygon points="50,20 60,40 80,35 65,55 75,75 50,65 25,75 35,55 20,35 40,40" fill="#dc3545" opacity="0.8"/>
    <circle cx="50" cy="50" r="8" fill="#dc3545"/>
    <path d="M 45 45 L 55 55 M 55 45 L 45 55" stroke="white" stroke-width="2"/>
  </symbol>
  
  <!-- Access Maintenance Icon -->
  <symbol id="icon-access" viewBox="0 0 100 100">
    <circle cx="35" cy="45" r="12" fill="none" stroke="#0066CC" stroke-width="3"/>
    <rect x="47" y="38" width="25" height="14" rx="2" fill="none" stroke="#0066CC" stroke-width="3"/>
    <line x1="55" y1="38" x2="55" y2="30" stroke="#0066CC" stroke-width="3"/>
    <line x1="65" y1="38" x2="65" y2="30" stroke="#0066CC" stroke-width="3"/>
    <circle cx="60" cy="45" r="3" fill="#0066CC"/>
    <path d="M 50 65 Q 60 75 70 65" stroke="#0066CC" stroke-width="2" fill="none"/>
  </symbol>
  
  <!-- Covering Tracks Icon -->
  <symbol id="icon-covering" viewBox="0 0 100 100">
    <rect x="25" y="35" width="35" height="15" rx="7" fill="#6f42c1" opacity="0.8"/>
    <path d="M 65 42 L 75 32 M 65 48 L 75 58" stroke="#6f42c1" stroke-width="3" stroke-linecap="round"/>
    <path d="M 20 65 Q 30 55 40 65 Q 50 75 60 65 Q 70 55 80 65" stroke="#6f42c1" stroke-width="2" fill="none" opacity="0.5"/>
  </symbol>
  
  <!-- White Hat Icon -->
  <symbol id="icon-white-hat" viewBox="0 0 100 100">
    <ellipse cx="50" cy="65" rx="30" ry="8" fill="#28a745" opacity="0.3"/>
    <path d="M 30 60 Q 50 40 70 60 Q 50 55 30 60" fill="white" stroke="#28a745" stroke-width="2"/>
    <circle cx="50" cy="50" r="15" fill="none" stroke="#28a745" stroke-width="2"/>
    <path d="M 42 48 L 48 54 L 58 44" stroke="#28a745" stroke-width="3" fill="none" stroke-linecap="round"/>
  </symbol>
  
  <!-- Black Hat Icon -->
  <symbol id="icon-black-hat" viewBox="0 0 100 100">
    <ellipse cx="50" cy="65" rx="30" ry="8" fill="#dc3545" opacity="0.3"/>
    <path d="M 30 60 Q 50 40 70 60 Q 50 55 30 60" fill="#1a1a1a" stroke="#dc3545" stroke-width="2"/>
    <circle cx="50" cy="50" r="15" fill="none" stroke="#dc3545" stroke-width="2"/>
    <path d="M 42 42 L 58 58 M 58 42 L 42 58" stroke="#dc3545" stroke-width="3" stroke-linecap="round"/>
  </symbol>
  
  <!-- Gray Hat Icon -->
  <symbol id="icon-gray-hat" viewBox="0 0 100 100">
    <ellipse cx="50" cy="65" rx="30" ry="8" fill="#ffc107" opacity="0.3"/>
    <path d="M 30 60 Q 50 40 70 60 Q 50 55 30 60" fill="#6c757d" stroke="#ffc107" stroke-width="2"/>
    <circle cx="50" cy="50" r="15" fill="none" stroke="#ffc107" stroke-width="2"/>
    <path d="M 42 48 L 50 56 L 58 48" stroke="#ffc107" stroke-width="3" fill="none" stroke-linecap="round"/>
  </symbol>
  
  <!-- Defense Shield Icon -->
  <symbol id="icon-shield" viewBox="0 0 100 100">
    <path d="M 50 15 L 35 25 L 35 50 Q 35 70 50 85 Q 65 70 65 50 L 65 25 Z" fill="#39A900" opacity="0.8"/>
    <path d="M 50 25 L 40 32 L 40 50 Q 40 65 50 75 Q 60 65 60 50 L 60 32 Z" fill="#28a745"/>
    <circle cx="50" cy="45" r="8" fill="white"/>
    <path d="M 46 43 L 49 46 L 54 41" stroke="#28a745" stroke-width="2" fill="none" stroke-linecap="round"/>
  </symbol>
  
  <!-- Network Icon -->
  <symbol id="icon-network" viewBox="0 0 100 100">
    <circle cx="25" cy="30" r="8" fill="#0066CC"/>
    <circle cx="75" cy="30" r="8" fill="#0066CC"/>
    <circle cx="50" cy="50" r="10" fill="#FF6600"/>
    <circle cx="25" cy="70" r="8" fill="#0066CC"/>
    <circle cx="75" cy="70" r="8" fill="#0066CC"/>
    
    <line x1="33" y1="35" x2="42" y2="45" stroke="#666" stroke-width="2"/>
    <line x1="67" y1="35" x2="58" y2="45" stroke="#666" stroke-width="2"/>
    <line x1="42" y1="55" x2="33" y2="65" stroke="#666" stroke-width="2"/>
    <line x1="58" y1="55" x2="67" y2="65" stroke="#666" stroke-width="2"/>
    <line x1="33" y1="70" x2="67" y2="70" stroke="#666" stroke-width="2"/>
  </symbol>
  
  <!-- Programming Icon -->
  <symbol id="icon-programming" viewBox="0 0 100 100">
    <rect x="15" y="20" width="70" height="55" rx="5" fill="none" stroke="#39A900" stroke-width="3"/>
    <rect x="20" y="30" width="60" height="35" fill="#1a1a1a"/>
    <path d="M 30 40 L 35 45 L 30 50" stroke="#39A900" stroke-width="2" fill="none" stroke-linecap="round"/>
    <line x1="40" y1="50" x2="50" y2="50" stroke="#39A900" stroke-width="2" stroke-linecap="round"/>
    <path d="M 55 40 L 50 45 L 55 50" stroke="#39A900" stroke-width="2" fill="none" stroke-linecap="round"/>
    <circle cx="25" cy="25" r="2" fill="#dc3545"/>
    <circle cx="32" cy="25" r="2" fill="#ffc107"/>
    <circle cx="39" cy="25" r="2" fill="#28a745"/>
  </symbol>
  
  <!-- Database Icon -->
  <symbol id="icon-database" viewBox="0 0 100 100">
    <ellipse cx="50" cy="30" rx="25" ry="8" fill="#20c997"/>
    <rect x="25" y="30" width="50" height="40" fill="#20c997"/>
    <ellipse cx="50" cy="70" rx="25" ry="8" fill="#17a2b8"/>
    <ellipse cx="50" cy="50" rx="25" ry="6" fill="none" stroke="#0dcaf0" stroke-width="2"/>
    <ellipse cx="50" cy="40" rx="25" ry="6" fill="none" stroke="#0dcaf0" stroke-width="2"/>
    <ellipse cx="50" cy="60" rx="25" ry="6" fill="none" stroke="#0dcaf0" stroke-width="2"/>
  </symbol>
  
  <!-- Security Badge Icon -->
  <symbol id="icon-security" viewBox="0 0 100 100">
    <polygon points="50,15 65,25 65,45 50,60 35,45 35,25" fill="#dc3545" opacity="0.8"/>
    <polygon points="50,25 60,32 60,45 50,55 40,45 40,32" fill="#dc3545"/>
    <circle cx="50" cy="40" r="6" fill="white"/>
    <rect x="47" y="44" width="6" height="8" fill="white"/>
  </symbol>
  
  <!-- Vulnerability Icon -->
  <symbol id="icon-vulnerability" viewBox="0 0 100 100">
    <circle cx="50" cy="50" r="30" fill="none" stroke="#ffc107" stroke-width="4" stroke-dasharray="10,5"/>
    <polygon points="50,30 55,45 70,45 58,55 63,70 50,62 37,70 42,55 30,45 45,45" fill="#ffc107"/>
    <circle cx="50" cy="50" r="8" fill="#fff"/>
    <text x="50" y="55" text-anchor="middle" font-size="12" font-weight="bold" fill="#ffc107">!</text>
  </symbol>
  
  <!-- Report Icon -->
  <symbol id="icon-report" viewBox="0 0 100 100">
    <rect x="25" y="15" width="50" height="70" rx="3" fill="white" stroke="#666" stroke-width="2"/>
    <rect x="30" y="25" width="40" height="5" fill="#39A900"/>
    <rect x="30" y="35" width="35" height="3" fill="#666"/>
    <rect x="30" y="42" width="30" height="3" fill="#666"/>
    <rect x="30" y="49" width="38" height="3" fill="#666"/>
    <rect x="30" y="56" width="25" height="3" fill="#666"/>
    <circle cx="60" cy="65" r="8" fill="#28a745"/>
    <path d="M 56 63 L 59 66 L 64 61" stroke="white" stroke-width="2" fill="none" stroke-linecap="round"/>
  </symbol>

  <!-- Hacking Value Icon -->
  <symbol id="icon-hacking-value" viewBox="0 0 100 100">
    <circle cx="50" cy="50" r="30" fill="none" stroke="#FF6600" stroke-width="4"/>
    <polygon points="50,25 60,40 75,40 65,52 70,67 50,57 30,67 35,52 25,40 40,40" fill="#FF6600" opacity="0.8"/>
    <circle cx="50" cy="50" r="8" fill="#fff"/>
    <text x="50" y="55" text-anchor="middle" font-size="10" font-weight="bold" fill="#FF6600">$</text>
  </symbol>

  <!-- Target Assessment Icon -->
  <symbol id="icon-target-assessment" viewBox="0 0 100 100">
    <circle cx="50" cy="50" r="28" fill="none" stroke="#dc3545" stroke-width="3"/>
    <circle cx="50" cy="50" r="20" fill="none" stroke="#dc3545" stroke-width="2"/>
    <circle cx="50" cy="50" r="12" fill="none" stroke="#dc3545" stroke-width="2"/>
    <circle cx="50" cy="50" r="4" fill="#dc3545"/>
    <path d="M 30 30 L 20 20 M 70 30 L 80 20 M 30 70 L 20 80 M 70 70 L 80 80" stroke="#dc3545" stroke-width="2"/>
  </symbol>

  <!-- Attack Icon -->
  <symbol id="icon-attack" viewBox="0 0 100 100">
    <path d="M 20 50 L 35 35 L 35 45 L 65 45 L 65 35 L 80 50 L 65 65 L 65 55 L 35 55 L 35 65 Z" fill="#dc3545"/>
    <circle cx="25" cy="50" r="3" fill="#fff"/>
    <polygon points="70,45 75,50 70,55" fill="#fff"/>
  </symbol>

  <!-- Exploit Icon -->
  <symbol id="icon-exploit" viewBox="0 0 100 100">
    <rect x="30" y="35" width="40" height="30" rx="5" fill="none" stroke="#FF6600" stroke-width="3"/>
    <path d="M 35 45 Q 50 35 65 45" stroke="#FF6600" stroke-width="2" fill="none"/>
    <circle cx="45" cy="50" r="3" fill="#FF6600"/>
    <circle cx="55" cy="50" r="3" fill="#FF6600"/>
    <path d="M 40 58 Q 50 65 60 58" stroke="#FF6600" stroke-width="2" fill="none"/>
    <path d="M 25 25 L 35 35 M 75 25 L 65 35 M 25 75 L 35 65 M 75 75 L 65 65" stroke="#FF6600" stroke-width="2" stroke-linecap="round"/>
  </symbol>

  <!-- Zero Day Icon -->
  <symbol id="icon-zero-day" viewBox="0 0 100 100">
    <circle cx="50" cy="50" r="30" fill="none" stroke="#dc3545" stroke-width="4" stroke-dasharray="5,5"/>
    <polygon points="50,20 60,35 75,35 65,47 70,62 50,52 30,62 35,47 25,35 40,35" fill="#dc3545"/>
    <text x="50" y="57" text-anchor="middle" font-size="14" font-weight="bold" fill="#fff">0</text>
    <circle cx="25" cy="25" r="8" fill="#ffc107"/>
    <text x="25" y="30" text-anchor="middle" font-size="10" font-weight="bold" fill="#000">!</text>
  </symbol>

  <!-- Daisy Chain Icon -->
  <symbol id="icon-daisy-chain" viewBox="0 0 100 100">
    <circle cx="25" cy="50" r="12" fill="#28a745" opacity="0.8"/>
    <circle cx="50" cy="35" r="10" fill="#ffc107" opacity="0.8"/>
    <circle cx="75" cy="50" r="12" fill="#dc3545" opacity="0.8"/>
    <circle cx="50" cy="65" r="10" fill="#17a2b8" opacity="0.8"/>
    
    <path d="M 35 45 Q 40 35 40 35" stroke="#666" stroke-width="2" fill="none"/>
    <path d="M 60 40 Q 70 45 65 45" stroke="#666" stroke-width="2" fill="none"/>
    <path d="M 65 55 Q 55 65 55 65" stroke="#666" stroke-width="2" fill="none"/>
    <path d="M 40 60 Q 30 55 35 55" stroke="#666" stroke-width="2" fill="none"/>
  </symbol>

  <!-- Suicide Hacking Icon -->
  <symbol id="icon-suicide-hacking" viewBox="0 0 100 100">
    <ellipse cx="50" cy="65" rx="30" ry="8" fill="#6c757d" opacity="0.3"/>
    <path d="M 30 60 Q 50 40 70 60 Q 50 55 30 60" fill="#000" stroke="#6c757d" stroke-width="2"/>
    <circle cx="50" cy="50" r="15" fill="none" stroke="#dc3545" stroke-width="3" stroke-dasharray="3,3"/>
    <path d="M 42 42 L 58 58 M 58 42 L 42 58" stroke="#dc3545" stroke-width="4" stroke-linecap="round"/>
    <polygon points="75,20 80,15 85,20 80,25" fill="#dc3545"/>
  </symbol>

  <!-- Platform Knowledge Icon -->
  <symbol id="icon-platform-knowledge" viewBox="0 0 100 100">
    <rect x="20" y="30" width="60" height="40" rx="5" fill="none" stroke="#0066CC" stroke-width="3"/>
    <rect x="25" y="35" width="50" height="30" fill="#1a1a1a"/>
    <circle cx="30" cy="25" r="3" fill="#dc3545"/>
    <circle cx="37" cy="25" r="3" fill="#ffc107"/>
    <circle cx="44" cy="25" r="3" fill="#28a745"/>
    <rect x="30" y="40" width="15" height="3" fill="#39A900"/>
    <rect x="30" y="46" width="20" height="3" fill="#39A900"/>
    <rect x="30" y="52" width="18" height="3" fill="#39A900"/>
    <rect x="30" y="58" width="12" height="3" fill="#39A900"/>
  </symbol>

  <!-- Computer Knowledge Icon -->
  <symbol id="icon-computer-knowledge" viewBox="0 0 100 100">
    <rect x="15" y="25" width="50" height="35" rx="3" fill="none" stroke="#FF6600" stroke-width="3"/>
    <rect x="20" y="30" width="40" height="25" fill="#1a1a1a"/>
    <rect x="30" y="60" width="20" height="8" rx="2" fill="none" stroke="#FF6600" stroke-width="2"/>
    <rect x="25" y="68" width="30" height="4" fill="#FF6600"/>
    <circle cx="40" cy="40" r="8" fill="#FF6600" opacity="0.3"/>
    <path d="M 35 37 L 40 42 L 45 37" stroke="#FF6600" stroke-width="2" fill="none"/>
  </symbol>

  <!-- Security Knowledge Icon -->
  <symbol id="icon-security-knowledge" viewBox="0 0 100 100">
    <path d="M 50 15 L 35 25 L 35 50 Q 35 70 50 85 Q 65 70 65 50 L 65 25 Z" fill="none" stroke="#dc3545" stroke-width="3"/>
    <circle cx="50" cy="45" r="12" fill="none" stroke="#dc3545" stroke-width="2"/>
    <rect x="47" y="50" width="6" height="8" fill="#dc3545"/>
    <circle cx="50" cy="45" r="3" fill="#dc3545"/>
    <path d="M 30 30 Q 35 25 40 30 M 60 30 Q 65 25 70 30" stroke="#dc3545" stroke-width="2" fill="none"/>
  </symbol>

  <!-- Technical Skills Icon -->
  <symbol id="icon-technical-skills" viewBox="0 0 100 100">
    <circle cx="50" cy="50" r="25" fill="none" stroke="#39A900" stroke-width="3"/>
    <polygon points="40,35 50,25 60,35 65,50 60,65 50,75 40,65 35,50" fill="none" stroke="#39A900" stroke-width="2"/>
    <circle cx="50" cy="35" r="3" fill="#39A900"/>
    <circle cx="65" cy="50" r="3" fill="#39A900"/>
    <circle cx="50" cy="65" r="3" fill="#39A900"/>
    <circle cx="35" cy="50" r="3" fill="#39A900"/>
    <circle cx="50" cy="50" r="5" fill="#39A900"/>
  </symbol>

  <!-- Defense in Depth Icon -->
  <symbol id="icon-defense-depth" viewBox="0 0 100 100">
    <circle cx="50" cy="50" r="35" fill="none" stroke="#28a745" stroke-width="3" opacity="0.3"/>
    <circle cx="50" cy="50" r="25" fill="none" stroke="#28a745" stroke-width="3" opacity="0.5"/>
    <circle cx="50" cy="50" r="15" fill="none" stroke="#28a745" stroke-width="3" opacity="0.7"/>
    <circle cx="50" cy="50" r="8" fill="#28a745"/>
    <path d="M 46 47 L 49 50 L 54 45" stroke="white" stroke-width="2" fill="none" stroke-linecap="round"/>
    <text x="50" y="85" text-anchor="middle" font-size="8" fill="#28a745">CAPAS</text>
  </symbol>

  <!-- Skills Wheel Icon -->
  <symbol id="icon-skills-wheel" viewBox="0 0 100 100">
    <circle cx="50" cy="50" r="30" fill="none" stroke="#0066CC" stroke-width="4"/>
    <line x1="50" y1="20" x2="50" y2="80" stroke="#0066CC" stroke-width="2"/>
    <line x1="20" y1="50" x2="80" y2="50" stroke="#0066CC" stroke-width="2"/>
    <line x1="28" y1="28" x2="72" y2="72" stroke="#0066CC" stroke-width="2"/>
    <line x1="72" y1="28" x2="28" y2="72" stroke="#0066CC" stroke-width="2"/>    <circle cx="50" cy="20" r="4" fill="#FF6600"/>
    <circle cx="80" cy="50" r="4" fill="#28a745"/>
    <circle cx="50" cy="80" r="4" fill="#dc3545"/>
    <circle cx="20" cy="50" r="4" fill="#ffc107"/>
    <circle cx="50" cy="50" r="6" fill="#0066CC"/>
  </symbol>

  <!-- Quiz Icon -->
  <symbol id="icon-quiz" viewBox="0 0 100 100">
    <circle cx="50" cy="50" r="35" fill="none" stroke="#39A900" stroke-width="4"/>
    <text x="50" y="60" text-anchor="middle" font-size="32" font-weight="bold" fill="#39A900">?</text>
    <circle cx="50" cy="50" r="45" fill="none" stroke="#39A900" stroke-width="2" opacity="0.3"/>
  </symbol>

  <!-- Check Icon -->
  <symbol id="icon-check" viewBox="0 0 100 100">
    <circle cx="50" cy="50" r="35" fill="#28a745"/>
    <path d="M 35 50 L 45 60 L 65 40" stroke="white" stroke-width="4" fill="none" stroke-linecap="round" stroke-linejoin="round"/>
  </symbol>

  <!-- Case Study Icon -->
  <symbol id="icon-case-study" viewBox="0 0 100 100">
    <rect x="25" y="20" width="50" height="60" rx="3" fill="none" stroke="#0066CC" stroke-width="3"/>
    <circle cx="35" cy="35" r="3" fill="#0066CC"/>
    <line x1="42" y1="35" x2="65" y2="35" stroke="#0066CC" stroke-width="2"/>
    <circle cx="35" cy="50" r="3" fill="#0066CC"/>
    <line x1="42" y1="50" x2="65" y2="50" stroke="#0066CC" stroke-width="2"/>
    <circle cx="35" cy="65" r="3" fill="#0066CC"/>
    <line x1="42" y1="65" x2="65" y2="65" stroke="#0066CC" stroke-width="2"/>
    <path d="M 70 15 L 80 25 L 70 35 L 75 30 L 75 20 Z" fill="#FF6600"/>
  </symbol>

  <!-- Lightbulb Icon -->
  <symbol id="icon-lightbulb" viewBox="0 0 100 100">
    <circle cx="50" cy="40" r="18" fill="none" stroke="#FFC107" stroke-width="3"/>
    <rect x="45" y="55" width="10" height="8" fill="#FFC107"/>
    <rect x="42" y="63" width="16" height="4" rx="2" fill="#FFC107"/>
    <line x1="30" y1="25" x2="35" y2="30" stroke="#FFC107" stroke-width="2"/>
    <line x1="70" y1="25" x2="65" y2="30" stroke="#FFC107" stroke-width="2"/>
    <line x1="50" y1="15" x2="50" y2="20" stroke="#FFC107" stroke-width="2"/>
    <line x1="25" y1="40" x2="30" y2="40" stroke="#FFC107" stroke-width="2"/>
    <line x1="70" y1="40" x2="75" y2="40" stroke="#FFC107" stroke-width="2"/>
  </symbol>

  <!-- Skills Wheel Icon -->
  <symbol id="icon-skills-wheel" viewBox="0 0 100 100">
    <circle cx="50" cy="50" r="30" fill="none" stroke="#39A900" stroke-width="3"/>
    <circle cx="50" cy="50" r="8" fill="#39A900"/>
    <line x1="50" y1="20" x2="50" y2="35" stroke="#39A900" stroke-width="2"/>
    <line x1="80" y1="50" x2="65" y2="50" stroke="#39A900" stroke-width="2"/>
    <line x1="50" y1="80" x2="50" y2="65" stroke="#39A900" stroke-width="2"/>
    <line x1="20" y1="50" x2="35" y2="50" stroke="#39A900" stroke-width="2"/>
    <circle cx="50" cy="20" r="4" fill="#FF6600"/>
    <circle cx="80" cy="50" r="4" fill="#0066CC"/>
    <circle cx="50" cy="80" r="4" fill="#DC3545"/>
    <circle cx="20" cy="50" r="4" fill="#FFC107"/>
  </symbol>

  <!-- Technical Skills Icon -->
  <symbol id="icon-technical-skills" viewBox="0 0 100 100">
    <rect x="20" y="30" width="60" height="40" rx="5" fill="none" stroke="#0066CC" stroke-width="3"/>
    <circle cx="35" cy="45" r="3" fill="#0066CC"/>
    <circle cx="50" cy="45" r="3" fill="#0066CC"/>
    <circle cx="65" cy="45" r="3" fill="#0066CC"/>
    <rect x="30" y="55" width="40" height="3" fill="#0066CC"/>
    <path d="M 40 20 L 50 10 L 60 20 Z" fill="#FF6600"/>
  </symbol>

  <!-- Programming Icon -->
  <symbol id="icon-programming" viewBox="0 0 100 100">
    <rect x="15" y="25" width="70" height="50" rx="5" fill="none" stroke="#28a745" stroke-width="3"/>
    <path d="M 30 40 L 25 45 L 30 50" stroke="#28a745" stroke-width="2" fill="none"/>
    <path d="M 45 40 L 50 45 L 45 50" stroke="#28a745" stroke-width="2" fill="none"/>
    <path d="M 60 40 L 65 45 L 60 50" stroke="#28a745" stroke-width="2" fill="none"/>
    <path d="M 70 40 L 75 45 L 70 50" stroke="#28a745" stroke-width="2" fill="none"/>
    <circle cx="20" cy="30" r="2" fill="#DC3545"/>
    <circle cx="25" cy="30" r="2" fill="#FFC107"/>
    <circle cx="30" cy="30" r="2" fill="#28a745"/>
  </symbol>

  <!-- Network Icon -->
  <symbol id="icon-network" viewBox="0 0 100 100">
    <circle cx="25" cy="25" r="8" fill="none" stroke="#0066CC" stroke-width="2"/>
    <circle cx="75" cy="25" r="8" fill="none" stroke="#0066CC" stroke-width="2"/>
    <circle cx="25" cy="75" r="8" fill="none" stroke="#0066CC" stroke-width="2"/>
    <circle cx="75" cy="75" r="8" fill="none" stroke="#0066CC" stroke-width="2"/>
    <circle cx="50" cy="50" r="8" fill="#0066CC"/>
    <line x1="33" y1="25" x2="42" y2="42" stroke="#0066CC" stroke-width="2"/>
    <line x1="67" y1="25" x2="58" y2="42" stroke="#0066CC" stroke-width="2"/>
    <line x1="33" y1="75" x2="42" y2="58" stroke="#0066CC" stroke-width="2"/>
    <line x1="67" y1="75" x2="58" y2="58" stroke="#0066CC" stroke-width="2"/>
  </symbol>

  <!-- Platform Knowledge Icon -->
  <symbol id="icon-platform-knowledge" viewBox="0 0 100 100">
    <rect x="20" y="30" width="60" height="40" rx="5" fill="none" stroke="#39A900" stroke-width="3"/>
    <rect x="25" y="35" width="50" height="25" fill="#39A900" opacity="0.1"/>
    <circle cx="35" cy="45" r="3" fill="#39A900"/>
    <circle cx="50" cy="45" r="3" fill="#39A900"/>
    <circle cx="65" cy="45" r="3" fill="#39A900"/>
    <rect x="30" y="52" width="40" height="2" fill="#39A900"/>
    <path d="M 45 20 L 50 15 L 55 20 Z" fill="#FF6600"/>
  </symbol>

  <!-- Computer Knowledge Icon -->
  <symbol id="icon-computer-knowledge" viewBox="0 0 100 100">
    <rect x="25" y="30" width="50" height="35" rx="3" fill="none" stroke="#0066CC" stroke-width="3"/>
    <rect x="30" y="35" width="40" height="20" fill="#0066CC" opacity="0.1"/>
    <rect x="45" y="65" width="10" height="8" fill="#0066CC"/>
    <rect x="35" y="73" width="30" height="3" rx="1" fill="#0066CC"/>
    <circle cx="40" cy="45" r="2" fill="#0066CC"/>
    <circle cx="50" cy="45" r="2" fill="#0066CC"/>
    <circle cx="60" cy="45" r="2" fill="#0066CC"/>
  </symbol>
  <!-- Suicide Hat Icon -->
  <symbol id="icon-suicide-hat" viewBox="0 0 100 100">
    <circle cx="50" cy="50" r="30" fill="none" stroke="#DC3545" stroke-width="4"/>
    <path d="M 35 35 L 65 65 M 65 35 L 35 65" stroke="#DC3545" stroke-width="4"/>
    <circle cx="50" cy="50" r="35" fill="none" stroke="#DC3545" stroke-width="2" opacity="0.5"/>
    <path d="M 30 30 L 70 70 M 70 30 L 30 70" stroke="#DC3545" stroke-width="2" opacity="0.3"/>
  </symbol>

  <!-- Hacker Types Icon -->
  <symbol id="icon-hacker-types" viewBox="0 0 100 100">
    <circle cx="30" cy="30" r="12" fill="#28a745" opacity="0.8"/>
    <circle cx="70" cy="30" r="12" fill="#DC3545" opacity="0.8"/>
    <circle cx="30" cy="70" r="12" fill="#FFC107" opacity="0.8"/>
    <circle cx="70" cy="70" r="12" fill="#6C757D" opacity="0.8"/>
    <text x="30" y="35" text-anchor="middle" font-size="10" fill="white" font-weight="bold">W</text>
    <text x="70" y="35" text-anchor="middle" font-size="10" fill="white" font-weight="bold">B</text>
    <text x="30" y="75" text-anchor="middle" font-size="10" fill="white" font-weight="bold">G</text>
    <text x="70" y="75" text-anchor="middle" font-size="10" fill="white" font-weight="bold">S</text>
  </symbol>

  <!-- Skills Icon (generic) -->
  <symbol id="icon-skills" viewBox="0 0 100 100">
    <circle cx="50" cy="50" r="30" fill="none" stroke="#39A900" stroke-width="3"/>
    <circle cx="50" cy="30" r="5" fill="#FF6600"/>
    <circle cx="70" cy="50" r="5" fill="#0066CC"/>
    <circle cx="50" cy="70" r="5" fill="#DC3545"/>
    <circle cx="30" cy="50" r="5" fill="#FFC107"/>
    <circle cx="50" cy="50" r="8" fill="#39A900"/>
    <line x1="50" y1="35" x2="50" y2="42" stroke="#39A900" stroke-width="2"/>
    <line x1="65" y1="50" x2="58" y2="50" stroke="#39A900" stroke-width="2"/>
    <line x1="50" y1="65" x2="50" y2="58" stroke="#39A900" stroke-width="2"/>
    <line x1="35" y1="50" x2="42" y2="50" stroke="#39A900" stroke-width="2"/>
  </symbol>

  <!-- Operating System Icon -->
  <symbol id="icon-operating-system" viewBox="0 0 100 100">
    <rect x="20" y="25" width="60" height="50" rx="5" fill="none" stroke="#0066CC" stroke-width="3"/>
    <rect x="25" y="30" width="50" height="20" fill="#0066CC" opacity="0.1"/>
    <circle cx="30" cy="35" r="2" fill="#DC3545"/>
    <circle cx="35" cy="35" r="2" fill="#FFC107"/>
    <circle cx="40" cy="35" r="2" fill="#28a745"/>
    <rect x="30" y="55" width="40" height="2" fill="#0066CC"/>
    <rect x="30" y="60" width="30" height="2" fill="#0066CC"/>
    <rect x="30" y="65" width="35" height="2" fill="#0066CC"/>
  </symbol>

  <!-- Hardware Knowledge Icon -->
  <symbol id="icon-hardware-knowledge" viewBox="0 0 100 100">
    <rect x="30" y="35" width="40" height="30" rx="3" fill="none" stroke="#FF6600" stroke-width="3"/>
    <rect x="35" y="40" width="30" height="15" fill="#FF6600" opacity="0.1"/>
    <circle cx="40" cy="47" r="2" fill="#FF6600"/>
    <circle cx="50" cy="47" r="2" fill="#FF6600"/>
    <circle cx="60" cy="47" r="2" fill="#FF6600"/>
    <rect x="45" y="25" width="10" height="10" fill="#FF6600"/>
    <line x1="50" y1="25" x2="50" y2="35" stroke="#FF6600" stroke-width="2"/>
    <rect x="20" y="70" width="60" height="5" rx="2" fill="#FF6600"/>
  </symbol>

  <!-- Computer Hardware Icon -->
  <symbol id="icon-computer-hardware" viewBox="0 0 100 100">
    <rect x="25" y="30" width="50" height="40" rx="5" fill="none" stroke="#FF6600" stroke-width="3"/>
    <rect x="30" y="35" width="40" height="25" fill="#FF6600" opacity="0.1"/>
    <circle cx="40" cy="45" r="3" fill="#FF6600"/>
    <circle cx="60" cy="45" r="3" fill="#FF6600"/>
    <rect x="35" y="52" width="30" height="3" fill="#FF6600"/>
    <rect x="40" y="58" width="20" height="2" fill="#FF6600"/>
    <path d="M 45 20 L 50 15 L 55 20 Z" fill="#DC3545"/>
  </symbol>

  <!-- Networking Knowledge Icon -->
  <symbol id="icon-networking-knowledge" viewBox="0 0 100 100">
    <circle cx="30" cy="30" r="8" fill="none" stroke="#0066CC" stroke-width="2"/>
    <circle cx="70" cy="30" r="8" fill="none" stroke="#0066CC" stroke-width="2"/>
    <circle cx="50" cy="60" r="8" fill="none" stroke="#0066CC" stroke-width="2"/>
    <circle cx="50" cy="40" r="5" fill="#0066CC"/>
    <line x1="38" y1="30" x2="42" y2="35" stroke="#0066CC" stroke-width="2"/>
    <line x1="62" y1="30" x2="58" y2="35" stroke="#0066CC" stroke-width="2"/>
    <line x1="50" y1="45" x2="50" y2="52" stroke="#0066CC" stroke-width="2"/>
    <circle cx="30" cy="30" r="3" fill="#0066CC"/>
    <circle cx="70" cy="30" r="3" fill="#0066CC"/>
    <circle cx="50" cy="60" r="3" fill="#0066CC"/>
  </symbol>

  <!-- Reconnaissance Icon -->
  <symbol id="icon-reconnaissance" viewBox="0 0 100 100">
    <circle cx="40" cy="40" r="25" fill="none" stroke="#39A900" stroke-width="4"/>
    <circle cx="40" cy="40" r="15" fill="none" stroke="#39A900" stroke-width="2"/>
    <circle cx="40" cy="40" r="5" fill="#39A900"/>
    <line x1="60" y1="60" x2="80" y2="80" stroke="#39A900" stroke-width="4" stroke-linecap="round"/>
    <circle cx="82" cy="82" r="3" fill="#39A900"/>
  </symbol>

  <!-- Exploitation Icon -->
  <symbol id="icon-exploitation" viewBox="0 0 100 100">
    <circle cx="50" cy="50" r="30" fill="none" stroke="#DC3545" stroke-width="3"/>
    <path d="M 35 40 L 50 25 L 65 40 L 50 55 Z" fill="#DC3545"/>
    <circle cx="50" cy="50" r="35" fill="none" stroke="#DC3545" stroke-width="2" opacity="0.5"/>
    <path d="M 40 35 L 50 20 L 60 35 L 50 50 Z" fill="white"/>
  </symbol>

  <!-- Gaining Access Icon -->
  <symbol id="icon-gaining-access" viewBox="0 0 100 100">
    <rect x="30" y="40" width="40" height="30" rx="5" fill="none" stroke="#FF6600" stroke-width="3"/>
    <circle cx="50" cy="35" r="8" fill="none" stroke="#FF6600" stroke-width="3"/>
    <circle cx="50" cy="55" r="4" fill="#FF6600"/>
    <rect x="48" y="59" width="4" height="8" fill="#FF6600"/>
    <path d="M 40 25 L 45 20 L 55 20 L 60 25" fill="none" stroke="#FF6600" stroke-width="2"/>
  </symbol>
  <!-- Clearing Tracks Icon -->
  <symbol id="icon-clearing-tracks" viewBox="0 0 100 100">
    <circle cx="50" cy="50" r="30" fill="none" stroke="#6C757D" stroke-width="3"/>
    <path d="M 35 35 L 50 50 L 65 35" stroke="#6C757D" stroke-width="3" fill="none"/>
    <path d="M 35 65 L 50 50 L 65 65" stroke="#6C757D" stroke-width="3" fill="none"/>
    <circle cx="50" cy="50" r="5" fill="#6C757D"/>
  </symbol>

  <!-- Search Icon -->
  <symbol id="icon-search" viewBox="0 0 100 100">
    <circle cx="40" cy="40" r="25" fill="none" stroke="#39A900" stroke-width="4"/>
    <line x1="60" y1="60" x2="80" y2="80" stroke="#39A900" stroke-width="4" stroke-linecap="round"/>
    <circle cx="82" cy="82" r="3" fill="#39A900"/>
  </symbol>

  <!-- Footprint Icon -->
  <symbol id="icon-footprint" viewBox="0 0 100 100">
    <ellipse cx="45" cy="35" rx="8" ry="12" fill="#28a745"/>
    <ellipse cx="55" cy="50" rx="6" ry="10" fill="#28a745"/>
    <ellipse cx="50" cy="65" rx="7" ry="11" fill="#28a745"/>
    <circle cx="40" cy="25" r="3" fill="#28a745" opacity="0.7"/>
    <circle cx="50" cy="40" r="2.5" fill="#28a745" opacity="0.7"/>
    <circle cx="45" cy="55" r="2" fill="#28a745" opacity="0.7"/>
    <circle cx="55" cy="70" r="2" fill="#28a745" opacity="0.7"/>
  </symbol>

  <!-- Target Icon -->
  <symbol id="icon-target" viewBox="0 0 100 100">
    <circle cx="50" cy="50" r="30" fill="none" stroke="#dc3545" stroke-width="3"/>
    <circle cx="50" cy="50" r="20" fill="none" stroke="#dc3545" stroke-width="2"/>
    <circle cx="50" cy="50" r="10" fill="none" stroke="#dc3545" stroke-width="2"/>
    <circle cx="50" cy="50" r="3" fill="#dc3545"/>
    <path d="M 20 50 L 30 50 M 70 50 L 80 50 M 50 20 L 50 30 M 50 70 L 50 80" stroke="#dc3545" stroke-width="2"/>
  </symbol>

  <!-- Ethics Icon -->
  <symbol id="icon-ethics" viewBox="0 0 100 100">
    <circle cx="50" cy="50" r="30" fill="none" stroke="#0066CC" stroke-width="3"/>
    <path d="M 35 45 L 47 57 L 65 35" stroke="#0066CC" stroke-width="4" fill="none" stroke-linecap="round"/>
    <circle cx="30" cy="30" r="8" fill="#28a745" opacity="0.3"/>
    <path d="M 26 28 L 29 31 L 34 26" stroke="#28a745" stroke-width="2" fill="none" stroke-linecap="round"/>
  </symbol>

  <!-- Quiz Icon -->
  <symbol id="icon-quiz" viewBox="0 0 100 100">
    <circle cx="50" cy="50" r="30" fill="none" stroke="#ffc107" stroke-width="3"/>
    <path d="M 40 35 Q 50 25 60 35 Q 55 45 50 50" stroke="#ffc107" stroke-width="3" fill="none" stroke-linecap="round"/>
    <circle cx="50" cy="65" r="3" fill="#ffc107"/>
  </symbol>

  <!-- Case Study Icon -->
  <symbol id="icon-case-study" viewBox="0 0 100 100">
    <rect x="25" y="20" width="50" height="60" rx="3" fill="white" stroke="#FF6600" stroke-width="2"/>
    <rect x="30" y="30" width="15" height="15" fill="#FF6600" opacity="0.3"/>
    <line x1="50" y1="32" x2="65" y2="32" stroke="#FF6600" stroke-width="2"/>
    <line x1="50" y1="37" x2="60" y2="37" stroke="#FF6600" stroke-width="2"/>
    <line x1="50" y1="42" x2="65" y2="42" stroke="#FF6600" stroke-width="2"/>
    <line x1="30" y1="55" x2="65" y2="55" stroke="#666" stroke-width="1"/>
    <line x1="30" y1="62" x2="60" y2="62" stroke="#666" stroke-width="1"/>
    <line x1="30" y1="69" x2="65" y2="69" stroke="#666" stroke-width="1"/>
  </symbol>

  <!-- Check Icon -->
  <symbol id="icon-check" viewBox="0 0 100 100">
    <circle cx="50" cy="50" r="30" fill="#28a745" opacity="0.8"/>
    <path d="M 35 50 L 45 60 L 65 40" stroke="white" stroke-width="4" fill="none" stroke-linecap="round"/>
  </symbol>

  <!-- Methodology Icon -->
  <symbol id="icon-methodology" viewBox="0 0 100 100">
    <rect x="20" y="30" width="60" height="40" rx="5" fill="none" stroke="#0066CC" stroke-width="3"/>
    <circle cx="35" cy="45" r="6" fill="#0066CC"/>
    <circle cx="50" cy="45" r="6" fill="#0066CC"/>
    <circle cx="65" cy="45" r="6" fill="#0066CC"/>
    <path d="M 41 45 L 44 45 M 56 45 L 59 45" stroke="#0066CC" stroke-width="2"/>
    <path d="M 30 55 L 35 60 L 50 60 L 65 60 L 70 55" stroke="#0066CC" stroke-width="2" fill="none"/>
  </symbol>

  <!-- Web Icon -->
  <symbol id="icon-web" viewBox="0 0 100 100">
    <circle cx="50" cy="50" r="30" fill="none" stroke="#20c997" stroke-width="3"/>
    <ellipse cx="50" cy="50" rx="30" ry="15" fill="none" stroke="#20c997" stroke-width="2"/>
    <ellipse cx="50" cy="50" rx="15" ry="30" fill="none" stroke="#20c997" stroke-width="2"/>
    <line x1="20" y1="35" x2="80" y2="35" stroke="#20c997" stroke-width="2"/>
    <line x1="20" y1="65" x2="80" y2="65" stroke="#20c997" stroke-width="2"/>
    <circle cx="50" cy="50" r="3" fill="#20c997"/>
  </symbol>

  <!-- Intelligence Icon -->
  <symbol id="icon-intelligence" viewBox="0 0 100 100">
    <path d="M 50 20 L 30 35 L 30 65 L 50 80 L 70 65 L 70 35 Z" fill="none" stroke="#6f42c1" stroke-width="3"/>
    <circle cx="50" cy="45" r="8" fill="#6f42c1" opacity="0.3"/>
    <path d="M 45 43 L 48 46 L 55 39" stroke="#6f42c1" stroke-width="2" fill="none" stroke-linecap="round"/>
    <path d="M 40 55 Q 50 65 60 55" stroke="#6f42c1" stroke-width="2" fill="none"/>
  </symbol>

  <!-- WHOIS Icon -->
  <symbol id="icon-whois" viewBox="0 0 100 100">
    <rect x="25" y="25" width="50" height="50" rx="5" fill="none" stroke="#17a2b8" stroke-width="3"/>
    <circle cx="45" cy="40" r="8" fill="none" stroke="#17a2b8" stroke-width="2"/>
    <line x1="45" y1="52" x2="45" y2="65" stroke="#17a2b8" stroke-width="3"/>
    <circle cx="45" cy="67" r="2" fill="#17a2b8"/>
    <rect x="58" y="35" width="12" height="30" rx="2" fill="#17a2b8" opacity="0.3"/>
    <line x1="61" y1="40" x2="67" y2="40" stroke="#17a2b8" stroke-width="1"/>
    <line x1="61" y1="45" x2="67" y2="45" stroke="#17a2b8" stroke-width="1"/>
    <line x1="61" y1="50" x2="67" y2="50" stroke="#17a2b8" stroke-width="1"/>
  </symbol>

  <!-- DNS Icon -->
  <symbol id="icon-dns" viewBox="0 0 100 100">
    <rect x="30" y="25" width="40" height="15" rx="3" fill="#39A900" opacity="0.3"/>
    <rect x="30" y="42" width="40" height="15" rx="3" fill="#39A900" opacity="0.5"/>
    <rect x="30" y="59" width="40" height="15" rx="3" fill="#39A900"/>
    <circle cx="25" cy="32" r="2" fill="#39A900"/>
    <circle cx="25" cy="49" r="2" fill="#39A900"/>
    <circle cx="25" cy="66" r="2" fill="#39A900"/>
    <line x1="25" y1="34" x2="25" y2="47" stroke="#39A900" stroke-width="1"/>
    <line x1="25" y1="51" x2="25" y2="64" stroke="#39A900" stroke-width="1"/>
  </symbol>

  <!-- Webpage Icon -->
  <symbol id="icon-webpage" viewBox="0 0 100 100">
    <rect x="20" y="25" width="60" height="50" rx="3" fill="white" stroke="#20c997" stroke-width="2"/>
    <rect x="20" y="25" width="60" height="12" fill="#20c997"/>
    <circle cx="27" cy="31" r="2" fill="white"/>
    <circle cx="34" cy="31" r="2" fill="white"/>
    <circle cx="41" cy="31" r="2" fill="white"/>
    <rect x="25" y="45" width="25" height="15" fill="#20c997" opacity="0.3"/>
    <line x1="55" y1="47" x2="75" y2="47" stroke="#20c997" stroke-width="2"/>
    <line x1="55" y1="52" x2="70" y2="52" stroke="#20c997" stroke-width="2"/>
    <line x1="55" y1="57" x2="75" y2="57" stroke="#20c997" stroke-width="2"/>
  </symbol>

  <!-- Email Icon -->
  <symbol id="icon-email" viewBox="0 0 100 100">
    <rect x="20" y="30" width="60" height="40" rx="3" fill="white" stroke="#dc3545" stroke-width="2"/>
    <path d="M 20 30 L 50 55 L 80 30" stroke="#dc3545" stroke-width="2" fill="none"/>
    <circle cx="75" cy="25" r="3" fill="#ffc107"/>
  </symbol>

  <!-- Lab Icon -->
  <symbol id="icon-lab" viewBox="0 0 100 100">
    <path d="M 40 20 L 40 45 L 25 70 L 75 70 L 60 45 L 60 20 Z" fill="none" stroke="#6f42c1" stroke-width="3"/>
    <rect x="35" y="15" width="30" height="8" fill="#6f42c1" opacity="0.3"/>
    <circle cx="35" cy="55" r="4" fill="#6f42c1" opacity="0.5"/>
    <circle cx="55" cy="60" r="3" fill="#6f42c1" opacity="0.7"/>
    <path d="M 30 65 Q 50 55 70 65" stroke="#6f42c1" stroke-width="2" fill="none"/>
  </symbol>
  <!-- Default Icon -->
  <symbol id="icon-default" viewBox="0 0 100 100">
    <circle cx="50" cy="50" r="25" fill="none" stroke="#666" stroke-width="3"/>
    <circle cx="50" cy="50" r="5" fill="#666"/>
    <path d="M 35 35 L 65 65 M 65 35 L 35 65" stroke="#666" stroke-width="2" opacity="0.3"/>
  </symbol>

  <!-- Scope Icon -->
  <symbol id="icon-scope" viewBox="0 0 100 100">
    <circle cx="50" cy="50" r="30" fill="none" stroke="#dc3545" stroke-width="3"/>
    <circle cx="50" cy="50" r="20" fill="none" stroke="#dc3545" stroke-width="2"/>
    <circle cx="50" cy="50" r="10" fill="none" stroke="#dc3545" stroke-width="2"/>
    <circle cx="50" cy="50" r="3" fill="#dc3545"/>
    <path d="M 20 20 L 30 30 M 80 20 L 70 30 M 20 80 L 30 70 M 80 80 L 70 70" stroke="#dc3545" stroke-width="2"/>
  </symbol>

  <!-- Channel Icon -->
  <symbol id="icon-channel" viewBox="0 0 100 100">
    <rect x="25" y="35" width="50" height="30" rx="5" fill="none" stroke="#0066CC" stroke-width="3"/>
    <path d="M 35 45 L 45 50 L 35 55 Z" fill="#0066CC"/>
    <path d="M 55 45 L 65 50 L 55 55 Z" fill="#0066CC"/>
    <line x1="45" y1="50" x2="55" y2="50" stroke="#0066CC" stroke-width="2"/>
  </symbol>

  <!-- Index Icon -->
  <symbol id="icon-index" viewBox="0 0 100 100">
    <rect x="25" y="20" width="50" height="60" rx="3" fill="white" stroke="#FF6600" stroke-width="2"/>
    <line x1="35" y1="35" x2="65" y2="35" stroke="#FF6600" stroke-width="2"/>
    <line x1="35" y1="45" x2="60" y2="45" stroke="#FF6600" stroke-width="1"/>
    <line x1="35" y1="52" x2="65" y2="52" stroke="#FF6600" stroke-width="1"/>
    <line x1="35" y1="59" x2="55" y2="59" stroke="#FF6600" stroke-width="1"/>
    <line x1="35" y1="66" x2="60" y2="66" stroke="#FF6600" stroke-width="1"/>
    <circle cx="30" cy="45" r="1.5" fill="#FF6600"/>
    <circle cx="30" cy="52" r="1.5" fill="#FF6600"/>
    <circle cx="30" cy="59" r="1.5" fill="#FF6600"/>
    <circle cx="30" cy="66" r="1.5" fill="#FF6600"/>
  </symbol>

  <!-- Vector Icon -->
  <symbol id="icon-vector" viewBox="0 0 100 100">
    <path d="M 20 50 L 70 30 L 65 35 M 70 30 L 65 25" stroke="#28a745" stroke-width="3" stroke-linecap="round"/>
    <path d="M 30 70 L 70 40 L 65 45 M 70 40 L 65 35" stroke="#28a745" stroke-width="3" stroke-linecap="round"/>
    <circle cx="25" cy="50" r="4" fill="#28a745"/>
    <circle cx="35" cy="70" r="4" fill="#28a745"/>
    <circle cx="75" cy="30" r="4" fill="#28a745"/>
  </symbol>

  <!-- Vulnerability Search Icon -->
  <symbol id="icon-vulnerability-search" viewBox="0 0 100 100">
    <circle cx="40" cy="40" r="20" fill="none" stroke="#ffc107" stroke-width="3" stroke-dasharray="5,3"/>
    <line x1="55" y1="55" x2="75" y2="75" stroke="#ffc107" stroke-width="3" stroke-linecap="round"/>
    <polygon points="40,25 45,35 55,35 47,42 50,52 40,47 30,52 33,42 25,35 35,35" fill="#ffc107" opacity="0.7"/>
    <text x="40" y="45" text-anchor="middle" font-size="8" font-weight="bold" fill="#000">!</text>
  </symbol>

  <!-- Security Scan Icon -->
  <symbol id="icon-security-scan" viewBox="0 0 100 100">
    <rect x="25" y="30" width="50" height="40" rx="5" fill="none" stroke="#28a745" stroke-width="3"/>
    <path d="M 50 20 L 40 30 L 40 45 Q 40 55 50 60 Q 60 55 60 45 L 60 30 Z" fill="#28a745" opacity="0.3"/>
    <circle cx="50" cy="50" r="12" fill="none" stroke="#28a745" stroke-width="2"/>
    <path d="M 40 50 L 60 50 M 50 40 L 50 60" stroke="#28a745" stroke-width="1" opacity="0.5"/>
  </symbol>

  <!-- Penetration Test Icon -->
  <symbol id="icon-penetration-test" viewBox="0 0 100 100">
    <rect x="30" y="40" width="40" height="20" rx="3" fill="none" stroke="#dc3545" stroke-width="3"/>
    <path d="M 20 50 L 30 50" stroke="#dc3545" stroke-width="4" stroke-linecap="round"/>
    <path d="M 15 50 L 25 45 L 25 55 Z" fill="#dc3545"/>
    <circle cx="50" cy="50" r="5" fill="#dc3545" opacity="0.3"/>
    <path d="M 45 45 L 55 55 M 55 45 L 45 55" stroke="#dc3545" stroke-width="2"/>
  </symbol>

  <!-- Risk Assessment Icon -->
  <symbol id="icon-risk-assessment" viewBox="0 0 100 100">
    <circle cx="50" cy="50" r="30" fill="none" stroke="#ffc107" stroke-width="3"/>
    <path d="M 35 45 L 50 35 L 65 45 L 50 65 Z" fill="#ffc107" opacity="0.7"/>
    <circle cx="50" cy="45" r="5" fill="#fff"/>
    <text x="50" y="49" text-anchor="middle" font-size="8" font-weight="bold" fill="#ffc107">!</text>
    <rect x="45" y="55" width="10" height="3" fill="#ffc107"/>
  </symbol>

  <!-- Security Audit Icon -->
  <symbol id="icon-security-audit" viewBox="0 0 100 100">
    <rect x="25" y="20" width="50" height="60" rx="3" fill="white" stroke="#0066CC" stroke-width="2"/>
    <path d="M 50 15 L 40 25 L 40 40 Q 40 50 50 55 Q 60 50 60 40 L 60 25 Z" fill="#0066CC" opacity="0.3"/>
    <line x1="35" y1="45" x2="65" y2="45" stroke="#0066CC" stroke-width="2"/>
    <line x1="35" y1="52" x2="60" y2="52" stroke="#0066CC" stroke-width="1"/>
    <line x1="35" y1="59" x2="65" y2="59" stroke="#0066CC" stroke-width="1"/>
    <line x1="35" y1="66" x2="55" y2="66" stroke="#0066CC" stroke-width="1"/>
    <circle cx="30" cy="52" r="1.5" fill="#28a745"/>
    <circle cx="30" cy="59" r="1.5" fill="#ffc107"/>
    <circle cx="30" cy="66" r="1.5" fill="#dc3545"/>
  </symbol>

  <!-- Ethical Hacking Icon -->
  <symbol id="icon-ethical-hacking" viewBox="0 0 100 100">
    <path d="M 35 65 Q 50 50 65 65 Q 50 60 35 65" fill="white" stroke="#28a745" stroke-width="2"/>
    <circle cx="50" cy="55" r="12" fill="none" stroke="#28a745" stroke-width="2"/>
    <path d="M 44 53 L 48 57 L 56 49" stroke="#28a745" stroke-width="2" fill="none" stroke-linecap="round"/>
    <rect x="40" y="35" width="20" height="15" rx="2" fill="none" stroke="#28a745" stroke-width="2"/>
    <circle cx="50" cy="42" r="3" fill="#28a745" opacity="0.3"/>
  </symbol>

  <!-- Web Security Icon -->
  <symbol id="icon-web-security" viewBox="0 0 100 100">
    <circle cx="50" cy="50" r="25" fill="none" stroke="#20c997" stroke-width="3"/>
    <ellipse cx="50" cy="50" rx="25" ry="12" fill="none" stroke="#20c997" stroke-width="2"/>
    <ellipse cx="50" cy="50" rx="12" ry="25" fill="none" stroke="#20c997" stroke-width="2"/>
    <path d="M 45 35 L 40 40 L 40 50 Q 40 60 50 65 Q 60 60 60 50 L 60 40 L 55 35" fill="#20c997" opacity="0.3"/>
    <circle cx="50" cy="50" r="3" fill="#20c997"/>
  </symbol>

  <!-- Scope Testing Icon -->
  <symbol id="icon-scope-testing" viewBox="0 0 100 100">
    <rect x="25" y="30" width="50" height="40" rx="5" fill="none" stroke="#dc3545" stroke-width="3"/>
    <circle cx="45" cy="45" r="6" fill="none" stroke="#dc3545" stroke-width="2"/>
    <circle cx="55" cy="55" r="6" fill="none" stroke="#dc3545" stroke-width="2"/>
    <path d="M 40 50 L 50 60" stroke="#dc3545" stroke-width="2"/>
    <circle cx="35" cy="35" r="2" fill="#dc3545"/>
    <circle cx="65" cy="35" r="2" fill="#dc3545"/>
    <circle cx="35" cy="65" r="2" fill="#dc3545"/>
    <circle cx="65" cy="65" r="2" fill="#dc3545"/>
  </symbol>

  <!-- Principles Icon -->
  <symbol id="icon-principles" viewBox="0 0 100 100">
    <polygon points="50,20 60,35 75,35 65,47 70,62 50,52 30,62 35,47 25,35 40,35" fill="none" stroke="#0066CC" stroke-width="3"/>
    <circle cx="50" cy="45" r="8" fill="#0066CC" opacity="0.3"/>
    <path d="M 46 43 L 49 46 L 54 41" stroke="#0066CC" stroke-width="2" fill="none" stroke-linecap="round"/>
  </symbol>

  <!-- Techniques Icon -->
  <symbol id="icon-techniques" viewBox="0 0 100 100">
    <rect x="25" y="35" width="50" height="30" rx="5" fill="none" stroke="#FF6600" stroke-width="3"/>
    <circle cx="40" cy="50" r="5" fill="#FF6600" opacity="0.5"/>
    <circle cx="50" cy="50" r="5" fill="#FF6600" opacity="0.7"/>
    <circle cx="60" cy="50" r="5" fill="#FF6600"/>
    <path d="M 35 45 Q 50 35 65 45" stroke="#FF6600" stroke-width="2" fill="none"/>
    <path d="M 35 55 Q 50 65 65 55" stroke="#FF6600" stroke-width="2" fill="none"/>
  </symbol>

  <!-- Framework Icon -->
  <symbol id="icon-framework" viewBox="0 0 100 100">
    <rect x="20" y="20" width="60" height="60" rx="5" fill="none" stroke="#6f42c1" stroke-width="3"/>
    <rect x="30" y="30" width="15" height="15" fill="#6f42c1" opacity="0.5"/>
    <rect x="55" y="30" width="15" height="15" fill="#6f42c1" opacity="0.5"/>
    <rect x="30" y="55" width="15" height="15" fill="#6f42c1" opacity="0.5"/>
    <rect x="55" y="55" width="15" height="15" fill="#6f42c1" opacity="0.5"/>
    <line x1="45" y1="37" x2="55" y2="37" stroke="#6f42c1" stroke-width="2"/>
    <line x1="37" y1="45" x2="37" y2="55" stroke="#6f42c1" stroke-width="2"/>
    <line x1="62" y1="45" x2="62" y2="55" stroke="#6f42c1" stroke-width="2"/>
    <line x1="45" y1="62" x2="55" y2="62" stroke="#6f42c1" stroke-width="2"/>
  </symbol>

</svg>
